<svg xmlns="http://www.w3.org/2000/svg" xmlns:xlink="http://www.w3.org/1999/xlink" width="1080" zoomAndPan="magnify" viewBox="0 0 810 809.999993" height="1080" preserveAspectRatio="xMidYMid meet" version="1.0"><defs><clipPath id="b2e85ca5d3"><path d="M 247 328 L 323 328 L 323 404.925781 L 247 404.925781 Z M 247 328 " clip-rule="nonzero"/></clipPath><clipPath id="116af9c54f"><path d="M 326 329 L 402 329 L 402 404.925781 L 326 404.925781 Z M 326 329 " clip-rule="nonzero"/></clipPath><clipPath id="05ae07ec46"><path d="M 579 329 L 655 329 L 655 404.925781 L 579 404.925781 Z M 579 329 " clip-rule="nonzero"/></clipPath><clipPath id="fe9252039f"><path d="M 81 328 L 158 328 L 158 404.925781 L 81 404.925781 Z M 81 328 " clip-rule="nonzero"/></clipPath><clipPath id="c2374d8a78"><path d="M 655 329 L 732 329 L 732 404.925781 L 655 404.925781 Z M 655 329 " clip-rule="nonzero"/></clipPath><clipPath id="e9e7491445"><path d="M 497 328 L 574 328 L 574 404.925781 L 497 404.925781 Z M 497 328 " clip-rule="nonzero"/></clipPath><clipPath id="83901cd771"><path d="M 735 329 L 810 329 L 810 404.925781 L 735 404.925781 Z M 735 329 " clip-rule="nonzero"/></clipPath><clipPath id="72843c6b67"><path d="M 0 329 L 77 329 L 77 404.925781 L 0 404.925781 Z M 0 329 " clip-rule="nonzero"/></clipPath><clipPath id="d8d7f0e91e"><path d="M 417 328 L 494 328 L 494 404.925781 L 417 404.925781 Z M 417 328 " clip-rule="nonzero"/></clipPath><clipPath id="05e068a023"><path d="M 165 250.425781 L 242 250.425781 L 242 327 L 165 327 Z M 165 250.425781 " clip-rule="nonzero"/></clipPath></defs><g clip-path="url(#b2e85ca5d3)"><path fill="#f24c3d" d="M 322.648438 328.515625 L 322.648438 404.054688 L 247.484375 404.054688 C 247.484375 403.910156 247.484375 403.765625 247.484375 403.617188 C 247.484375 362.148438 281.132812 328.515625 322.648438 328.515625 Z M 322.648438 328.515625 " fill-opacity="1" fill-rule="nonzero"/></g><path fill="#f2be22" d="M 496.351562 251.558594 L 570.558594 251.558594 L 570.558594 325.296875 C 570.414062 325.296875 570.269531 325.296875 570.125 325.296875 C 529.390625 325.296875 496.351562 292.269531 496.351562 251.558594 Z M 496.351562 251.558594 " fill-opacity="1" fill-rule="nonzero"/><g clip-path="url(#116af9c54f)"><path fill="#f2be22" d="M 401.996094 404.023438 L 326.886719 404.023438 L 326.886719 329.386719 C 327.03125 329.386719 327.175781 329.386719 327.324219 329.386719 C 368.550781 329.386719 401.996094 362.789062 401.996094 404.023438 Z M 401.996094 404.023438 " fill-opacity="1" fill-rule="nonzero"/></g><g clip-path="url(#05ae07ec46)"><path fill="#f2be22" d="M 579.964844 404.054688 L 579.964844 403.617188 C 579.964844 362.410156 613.382812 329.011719 654.609375 329.011719 C 654.609375 329.15625 654.609375 329.300781 654.609375 329.445312 C 654.578125 370.652344 621.191406 404.054688 579.964844 404.054688 Z M 579.964844 404.054688 " fill-opacity="1" fill-rule="nonzero"/></g><path fill="#f2be22" d="M 82.199219 328.199219 C 82.199219 286.816406 115.761719 253.296875 157.132812 253.296875 L 157.132812 253.734375 C 157.132812 295.113281 123.570312 328.632812 82.199219 328.632812 C 82.199219 328.488281 82.199219 328.34375 82.199219 328.199219 Z M 82.199219 328.199219 " fill-opacity="1" fill-rule="nonzero"/><path fill="#22a699" d="M 402.226562 251.992188 L 402.226562 252.425781 C 402.226562 294.15625 368.375 327.964844 326.65625 327.964844 C 326.65625 327.820312 326.65625 327.675781 326.65625 327.53125 C 326.65625 285.800781 360.476562 251.992188 402.226562 251.992188 Z M 402.226562 251.992188 " fill-opacity="1" fill-rule="nonzero"/><g clip-path="url(#fe9252039f)"><path fill="#f29727" d="M 157.683594 404.171875 L 157.25 404.171875 C 115.5 404.171875 81.675781 370.332031 81.675781 328.632812 C 81.820312 328.632812 81.96875 328.632812 82.113281 328.632812 C 123.832031 328.605469 157.683594 362.441406 157.683594 404.171875 Z M 157.683594 404.171875 " fill-opacity="1" fill-rule="nonzero"/></g><path fill="#22a699" d="M 655.335938 328.199219 C 655.335938 286.46875 689.1875 252.660156 730.90625 252.660156 L 730.90625 253.09375 C 730.90625 294.824219 697.054688 328.632812 655.335938 328.632812 C 655.363281 328.457031 655.335938 328.34375 655.335938 328.199219 Z M 655.335938 328.199219 " fill-opacity="1" fill-rule="nonzero"/><g clip-path="url(#c2374d8a78)"><path fill="#f29727" d="M 731.371094 404.578125 L 730.9375 404.578125 C 689.1875 404.578125 655.363281 370.738281 655.363281 329.039062 C 655.507812 329.039062 655.652344 329.039062 655.800781 329.039062 C 697.519531 329.011719 731.371094 362.847656 731.371094 404.578125 Z M 731.371094 404.578125 " fill-opacity="1" fill-rule="nonzero"/></g><g clip-path="url(#e9e7491445)"><path fill="#f24c3d" d="M 497.804688 403.648438 C 497.804688 361.917969 531.65625 328.109375 573.375 328.109375 L 573.375 328.546875 C 573.375 370.277344 539.523438 404.082031 497.804688 404.082031 C 497.804688 403.9375 497.804688 403.792969 497.804688 403.648438 Z M 497.804688 403.648438 " fill-opacity="1" fill-rule="nonzero"/></g><path fill="#f29727" d="M 654.578125 328.402344 L 654.144531 328.402344 C 612.394531 328.402344 578.570312 294.5625 578.570312 252.863281 C 578.71875 252.863281 578.863281 252.863281 579.007812 252.863281 C 620.757812 252.863281 654.578125 286.671875 654.578125 328.402344 Z M 654.578125 328.402344 " fill-opacity="1" fill-rule="nonzero"/><g clip-path="url(#83901cd771)"><path fill="#22a699" d="M 735.03125 403.996094 C 735.03125 362.613281 768.589844 329.066406 809.992188 329.066406 L 809.992188 329.503906 C 809.992188 370.886719 776.429688 404.429688 735.03125 404.429688 C 735.03125 404.285156 735.03125 404.140625 735.03125 403.996094 Z M 735.03125 403.996094 " fill-opacity="1" fill-rule="nonzero"/></g><path fill="#f2be22" d="M 167.875 403.910156 L 167.875 327.9375 L 243.449219 327.9375 C 243.449219 328.082031 243.449219 328.226562 243.449219 328.371094 C 243.476562 370.101562 209.625 403.910156 167.875 403.910156 Z M 167.875 403.910156 " fill-opacity="1" fill-rule="nonzero"/><g clip-path="url(#72843c6b67)"><path fill="#22a699" d="M 0.0078125 329.386719 L 76.015625 329.386719 L 76.015625 404.925781 C 75.871094 404.925781 75.726562 404.925781 75.578125 404.925781 C 33.859375 404.925781 0.0078125 371.089844 0.0078125 329.386719 Z M 0.0078125 329.386719 " fill-opacity="1" fill-rule="nonzero"/></g><path fill="#f29727" d="M 417.324219 327.53125 L 417.324219 251.558594 L 492.898438 251.558594 C 492.898438 251.703125 492.898438 251.847656 492.898438 251.992188 C 492.898438 293.691406 459.074219 327.53125 417.324219 327.53125 Z M 417.324219 327.53125 " fill-opacity="1" fill-rule="nonzero"/><g clip-path="url(#d8d7f0e91e)"><path fill="#22a699" d="M 493.128906 404.257812 L 417.121094 404.257812 L 417.121094 328.71875 C 417.265625 328.71875 417.410156 328.71875 417.558594 328.71875 C 459.277344 328.71875 493.128906 362.554688 493.128906 404.257812 Z M 493.128906 404.257812 " fill-opacity="1" fill-rule="nonzero"/></g><path fill="#f29727" d="M 322.792969 327.734375 L 246.757812 327.734375 L 246.757812 252.195312 C 246.902344 252.195312 247.046875 252.195312 247.191406 252.195312 C 288.941406 252.195312 322.792969 286.03125 322.792969 327.734375 Z M 322.792969 327.734375 " fill-opacity="1" fill-rule="nonzero"/><path fill="#f24c3d" d="M 0.675781 327.328125 L 0.675781 252.628906 L 75.40625 252.628906 C 50.496094 277.527344 25.585938 302.429688 0.675781 327.328125 Z M 0.675781 327.328125 " fill-opacity="1" fill-rule="nonzero"/><path fill="#f24c3d" d="M 733.695312 252.339844 L 808.425781 252.339844 L 808.425781 327.035156 C 783.515625 302.109375 758.605469 277.210938 733.695312 252.339844 Z M 733.695312 252.339844 " fill-opacity="1" fill-rule="nonzero"/><g clip-path="url(#05e068a023)"><path fill="#f29727" d="M 241.445312 288.410156 C 241.445312 289.65625 241.382812 290.898438 241.261719 292.136719 C 241.140625 293.371094 240.957031 294.601562 240.714844 295.824219 C 240.472656 297.042969 240.167969 298.246094 239.808594 299.4375 C 239.445312 300.628906 239.027344 301.800781 238.550781 302.949219 C 238.074219 304.097656 237.542969 305.222656 236.957031 306.316406 C 236.371094 307.414062 235.730469 308.480469 235.039062 309.515625 C 234.347656 310.550781 233.605469 311.546875 232.816406 312.511719 C 232.027344 313.472656 231.191406 314.390625 230.3125 315.273438 C 229.433594 316.152344 228.511719 316.988281 227.550781 317.777344 C 226.585938 318.566406 225.589844 319.304688 224.554688 319.996094 C 223.519531 320.6875 222.453125 321.328125 221.355469 321.914062 C 220.257812 322.5 219.132812 323.03125 217.984375 323.507812 C 216.832031 323.984375 215.664062 324.402344 214.472656 324.761719 C 213.28125 325.125 212.074219 325.425781 210.855469 325.667969 C 209.632812 325.910156 208.402344 326.09375 207.164062 326.214844 C 205.925781 326.335938 204.683594 326.398438 203.441406 326.398438 C 202.195312 326.398438 200.953125 326.335938 199.714844 326.214844 C 198.476562 326.09375 197.246094 325.910156 196.027344 325.667969 C 194.804688 325.425781 193.597656 325.125 192.410156 324.761719 C 191.21875 324.402344 190.046875 323.984375 188.898438 323.507812 C 187.746094 323.03125 186.621094 322.5 185.523438 321.914062 C 184.425781 321.328125 183.359375 320.6875 182.328125 319.996094 C 181.292969 319.304688 180.292969 318.566406 179.332031 317.777344 C 178.367188 316.988281 177.449219 316.152344 176.566406 315.273438 C 175.6875 314.390625 174.851562 313.472656 174.0625 312.511719 C 173.273438 311.546875 172.53125 310.550781 171.839844 309.515625 C 171.148438 308.480469 170.511719 307.414062 169.921875 306.316406 C 169.335938 305.222656 168.804688 304.097656 168.328125 302.949219 C 167.851562 301.800781 167.433594 300.628906 167.074219 299.4375 C 166.710938 298.246094 166.410156 297.042969 166.167969 295.824219 C 165.921875 294.601562 165.742188 293.371094 165.621094 292.136719 C 165.496094 290.898438 165.4375 289.65625 165.4375 288.410156 C 165.4375 287.167969 165.496094 285.925781 165.621094 284.6875 C 165.742188 283.449219 165.921875 282.222656 166.167969 281 C 166.410156 279.78125 166.710938 278.574219 167.074219 277.382812 C 167.433594 276.195312 167.851562 275.023438 168.328125 273.875 C 168.804688 272.726562 169.335938 271.601562 169.921875 270.503906 C 170.511719 269.40625 171.148438 268.339844 171.839844 267.308594 C 172.53125 266.273438 173.273438 265.273438 174.0625 264.3125 C 174.851562 263.351562 175.6875 262.429688 176.566406 261.550781 C 177.449219 260.671875 178.367188 259.835938 179.332031 259.046875 C 180.292969 258.257812 181.292969 257.519531 182.328125 256.828125 C 183.359375 256.136719 184.425781 255.496094 185.523438 254.910156 C 186.621094 254.324219 187.746094 253.792969 188.898438 253.316406 C 190.046875 252.839844 191.21875 252.421875 192.410156 252.0625 C 193.597656 251.699219 194.804688 251.398438 196.027344 251.15625 C 197.246094 250.914062 198.476562 250.730469 199.714844 250.609375 C 200.953125 250.484375 202.195312 250.425781 203.441406 250.425781 C 204.683594 250.425781 205.925781 250.484375 207.164062 250.609375 C 208.402344 250.730469 209.632812 250.914062 210.855469 251.15625 C 212.074219 251.398438 213.28125 251.699219 214.472656 252.0625 C 215.664062 252.421875 216.832031 252.839844 217.984375 253.316406 C 219.132812 253.792969 220.257812 254.324219 221.355469 254.910156 C 222.453125 255.496094 223.519531 256.136719 224.554688 256.828125 C 225.589844 257.519531 226.585938 258.257812 227.550781 259.046875 C 228.511719 259.835938 229.433594 260.671875 230.3125 261.550781 C 231.191406 262.429688 232.027344 263.351562 232.816406 264.3125 C 233.605469 265.273438 234.347656 266.273438 235.039062 267.308594 C 235.730469 268.339844 236.371094 269.40625 236.957031 270.503906 C 237.542969 271.601562 238.074219 272.726562 238.550781 273.875 C 239.027344 275.023438 239.445312 276.195312 239.808594 277.382812 C 240.167969 278.574219 240.472656 279.78125 240.714844 281 C 240.957031 282.222656 241.140625 283.449219 241.261719 284.6875 C 241.382812 285.925781 241.445312 287.167969 241.445312 288.410156 Z M 241.445312 288.410156 " fill-opacity="1" fill-rule="nonzero"/></g></svg>